<?xml version="1.0" encoding="UTF-8"?>
<svg version="1.1" xmlns="http://www.w3.org/2000/svg" width="423" height="420">
<path d="M0 0 C1.84664246 -0.00143509 1.84664246 -0.00143509 3.73059082 -0.00289917 C6.32251029 -0.00357691 8.91443149 -0.00175107 11.50634766 0.00244141 C15.45609376 0.00779534 19.40572615 0.00248253 23.35546875 -0.00390625 C25.88281275 -0.0032454 28.41015668 -0.00196409 30.9375 0 C32.69568054 -0.00303635 32.69568054 -0.00303635 34.48937988 -0.00613403 C40.71563958 0.01152407 46.82854978 0.03837138 52.96875 1.1328125 C53.62875 2.1228125 54.28875 3.1128125 54.96875 4.1328125 C58.52547179 5.3516246 58.52547179 5.3516246 61.96875 6.1328125 C61.96875 6.7928125 61.96875 7.4528125 61.96875 8.1328125 C63.61875 8.1328125 65.26875 8.1328125 66.96875 8.1328125 C67.62875 9.4528125 68.28875 10.7728125 68.96875 12.1328125 C69.731875 12.0709375 70.495 12.0090625 71.28125 11.9453125 C73.96875 12.1328125 73.96875 12.1328125 75.65625 13.5703125 C76.089375 14.0859375 76.5225 14.6015625 76.96875 15.1328125 C77.62875 15.4628125 78.28875 15.7928125 78.96875 16.1328125 C78.96875 17.1228125 78.96875 18.1128125 78.96875 19.1328125 C80.28875 19.1328125 81.60875 19.1328125 82.96875 19.1328125 C82.96875 20.1228125 82.96875 21.1128125 82.96875 22.1328125 C83.773125 22.225625 83.773125 22.225625 84.59375 22.3203125 C88.00401632 23.48698256 90.34735507 25.7497262 92.96875 28.1328125 C94.144375 29.15375 94.144375 29.15375 95.34375 30.1953125 C96.96875 32.1328125 96.96875 32.1328125 96.96875 36.1328125 C97.95875 36.1328125 98.94875 36.1328125 99.96875 36.1328125 C100.071875 36.7721875 100.175 37.4115625 100.28125 38.0703125 C100.508125 38.7509375 100.735 39.4315625 100.96875 40.1328125 C101.95875 40.4628125 102.94875 40.7928125 103.96875 41.1328125 C105.15625 43.1953125 105.15625 43.1953125 105.96875 45.1328125 C106.29875 45.1328125 106.62875 45.1328125 106.96875 45.1328125 C107.29875 47.1128125 107.62875 49.0928125 107.96875 51.1328125 C108.95875 51.4628125 109.94875 51.7928125 110.96875 52.1328125 C111.29875 54.1128125 111.62875 56.0928125 111.96875 58.1328125 C112.62875 58.1328125 113.28875 58.1328125 113.96875 58.1328125 C114.29875 61.1028125 114.62875 64.0728125 114.96875 67.1328125 C115.95875 67.4628125 116.94875 67.7928125 117.96875 68.1328125 C118.29875 71.4328125 118.62875 74.7328125 118.96875 78.1328125 C119.62875 77.8028125 120.28875 77.4728125 120.96875 77.1328125 C120.96875 93.6328125 120.96875 110.1328125 120.96875 127.1328125 C119.97875 127.1328125 118.98875 127.1328125 117.96875 127.1328125 C118.00355469 127.97585937 118.03835938 128.81890625 118.07421875 129.6875 C118.10128906 130.78320312 118.12835938 131.87890625 118.15625 133.0078125 C118.19105469 134.09835938 118.22585938 135.18890625 118.26171875 136.3125 C118.16503906 137.24320313 118.06835938 138.17390625 117.96875 139.1328125 C116.48375 140.1228125 116.48375 140.1228125 114.96875 141.1328125 C114.23268501 144.70050802 114.23268501 144.70050802 113.96875 148.1328125 C112.97875 148.1328125 111.98875 148.1328125 110.96875 148.1328125 C110.96875 150.4428125 110.96875 152.7528125 110.96875 155.1328125 C109.97875 155.4628125 108.98875 155.7928125 107.96875 156.1328125 C107.63875 158.1128125 107.30875 160.0928125 106.96875 162.1328125 C105.97875 161.8028125 104.98875 161.4728125 103.96875 161.1328125 C103.96875 162.7828125 103.96875 164.4328125 103.96875 166.1328125 C102.64875 166.1328125 101.32875 166.1328125 99.96875 166.1328125 C99.96875 167.7828125 99.96875 169.4328125 99.96875 171.1328125 C99.30875 171.1328125 98.64875 171.1328125 97.96875 171.1328125 C97.30875 172.4528125 96.64875 173.7728125 95.96875 175.1328125 C95.30875 175.1328125 94.64875 175.1328125 93.96875 175.1328125 C93.700625 175.7309375 93.4325 176.3290625 93.15625 176.9453125 C91.96957594 179.13129104 90.87275887 180.54613844 88.96875 182.1328125 C88.30875 182.1328125 87.64875 182.1328125 86.96875 182.1328125 C86.63875 183.1228125 86.30875 184.1128125 85.96875 185.1328125 C85.30875 185.1328125 84.64875 185.1328125 83.96875 185.1328125 C83.63875 185.7928125 83.30875 186.4528125 82.96875 187.1328125 C81.97875 187.4628125 80.98875 187.7928125 79.96875 188.1328125 C79.63875 189.1228125 79.30875 190.1128125 78.96875 191.1328125 C76.46113098 192.8742146 74.06668447 194.09497418 71.21875 195.1953125 C68.80642007 195.91278914 68.80642007 195.91278914 67.96875 198.1328125 C65.98875 198.1328125 64.00875 198.1328125 61.96875 198.1328125 C61.30875 199.4528125 60.64875 200.7728125 59.96875 202.1328125 C57.98875 202.1328125 56.00875 202.1328125 53.96875 202.1328125 C53.63875 203.1228125 53.30875 204.1128125 52.96875 205.1328125 C49.00875 205.4628125 45.04875 205.7928125 40.96875 206.1328125 C40.63875 207.1228125 40.30875 208.1128125 39.96875 209.1328125 C12.57875 209.4628125 -14.81125 209.7928125 -43.03125 210.1328125 C-42.70125 210.7928125 -42.37125 211.4528125 -42.03125 212.1328125 C-45.99125 212.1328125 -49.95125 212.1328125 -54.03125 212.1328125 C-54.03125 213.1228125 -54.03125 214.1128125 -54.03125 215.1328125 C-56.01125 215.4628125 -57.99125 215.7928125 -60.03125 216.1328125 C-60.36125 217.1228125 -60.69125 218.1128125 -61.03125 219.1328125 C-63.01125 219.4628125 -64.99125 219.7928125 -67.03125 220.1328125 C-67.1859375 221.03 -67.1859375 221.03 -67.34375 221.9453125 C-68.13628854 224.46702602 -68.94716409 225.52966949 -71.03125 227.1328125 C-72.02125 227.1328125 -73.01125 227.1328125 -74.03125 227.1328125 C-74.36125 229.1128125 -74.69125 231.0928125 -75.03125 233.1328125 C-76.02125 232.8028125 -77.01125 232.4728125 -78.03125 232.1328125 C-77.969375 233.0815625 -77.9075 234.0303125 -77.84375 235.0078125 C-77.905625 236.0390625 -77.9675 237.0703125 -78.03125 238.1328125 C-79.02125 238.7928125 -80.01125 239.4528125 -81.03125 240.1328125 C-81.61473752 242.7884853 -81.61473752 242.7884853 -81.71875 245.7578125 C-81.78449219 246.76070312 -81.85023438 247.76359375 -81.91796875 248.796875 C-81.97404297 249.95316406 -81.97404297 249.95316406 -82.03125 251.1328125 C-82.69125 251.1328125 -83.35125 251.1328125 -84.03125 251.1328125 C-84.03548194 251.97194907 -84.03971388 252.81108564 -84.04407406 253.6756506 C-84.14723393 274.06336052 -84.25584936 294.45103496 -84.37058926 314.83868313 C-84.42594333 324.6978631 -84.47942885 334.55704668 -84.52856445 344.41625977 C-84.5713796 353.0063134 -84.61765074 361.59634016 -84.66812855 370.18635231 C-84.69475107 374.73760868 -84.71960459 379.28885963 -84.74032402 383.84014702 C-84.75985719 388.11888683 -84.78399079 392.39757536 -84.81174088 396.67626953 C-84.82112897 398.25130854 -84.82879787 399.82635882 -84.83466911 401.40141487 C-84.84290058 403.54248261 -84.85716854 405.6834249 -84.87303162 407.82444763 C-84.87948417 409.02554389 -84.88593672 410.22664015 -84.8925848 411.46413326 C-85.03125 414.1328125 -85.03125 414.1328125 -86.03125 415.1328125 C-88.71193769 415.23064926 -91.36686653 415.26275375 -94.04798889 415.25306702 C-94.8961618 415.25392303 -95.74433472 415.25477905 -96.61820984 415.25566101 C-99.4916692 415.25732654 -102.36507129 415.2517759 -105.23852539 415.24633789 C-107.32120735 415.24603181 -109.4038894 415.24616462 -111.48657131 415.24670315 C-117.08471218 415.24692973 -122.68283186 415.24111663 -128.28096771 415.23409271 C-133.52613902 415.2284151 -138.77130506 415.22813054 -144.01647949 415.22741699 C-159.37557249 415.22216107 -174.73466151 415.20820003 -190.09375 415.1953125 C-224.393125 415.1746875 -258.6925 415.1540625 -294.03125 415.1328125 C-294.03125 339.8928125 -294.03125 264.6528125 -294.03125 187.1328125 C-290.07125 187.1328125 -286.11125 187.1328125 -282.03125 187.1328125 C-281.70125 188.1228125 -281.37125 189.1128125 -281.03125 190.1328125 C-279.38125 190.1328125 -277.73125 190.1328125 -276.03125 190.1328125 C-275.37125 191.4528125 -274.71125 192.7728125 -274.03125 194.1328125 C-270.73125 194.1328125 -267.43125 194.1328125 -264.03125 194.1328125 C-264.03125 195.1228125 -264.03125 196.1128125 -264.03125 197.1328125 C-260.73125 197.1328125 -257.43125 197.1328125 -254.03125 197.1328125 C-253.70125 198.1228125 -253.37125 199.1128125 -253.03125 200.1328125 C-245.52087286 200.20230585 -238.01052904 200.25562028 -230.49990368 200.28824902 C-227.01243424 200.30390885 -223.52518468 200.3251523 -220.0378418 200.35913086 C-216.02911257 200.3979453 -212.02061452 200.412519 -208.01171875 200.42578125 C-206.75852341 200.44126511 -205.50532806 200.45674896 -204.2141571 200.47270203 C-203.05318008 200.47292862 -201.89220306 200.47315521 -200.69604492 200.47338867 C-199.67234299 200.48005051 -198.64864105 200.48671234 -197.59391785 200.49357605 C-194.61805754 200.07464469 -193.9402387 199.34952854 -192.03125 197.1328125 C-189.55078125 196.62109375 -189.55078125 196.62109375 -186.84375 196.4453125 C-185.94269531 196.37957031 -185.04164063 196.31382812 -184.11328125 196.24609375 C-183.08267578 196.19001953 -183.08267578 196.19001953 -182.03125 196.1328125 C-182.03125 195.4728125 -182.03125 194.8128125 -182.03125 194.1328125 C-178.07125 193.8028125 -174.11125 193.4728125 -170.03125 193.1328125 C-170.03125 192.1428125 -170.03125 191.1528125 -170.03125 190.1328125 C-168.05125 189.8028125 -166.07125 189.4728125 -164.03125 189.1328125 C-164.03125 188.4728125 -164.03125 187.8128125 -164.03125 187.1328125 C-162.360625 186.978125 -162.360625 186.978125 -160.65625 186.8203125 C-159.46 186.5934375 -158.26375 186.3665625 -157.03125 186.1328125 C-156.37125 185.1428125 -155.71125 184.1528125 -155.03125 183.1328125 C-153.04078609 180.54520941 -152.13741602 180.15571105 -148.84375 179.4453125 C-147.915625 179.3421875 -146.9875 179.2390625 -146.03125 179.1328125 C-146.03125 178.4728125 -146.03125 177.8128125 -146.03125 177.1328125 C-145.04125 176.8028125 -144.05125 176.4728125 -143.03125 176.1328125 C-142.70125 175.1428125 -142.37125 174.1528125 -142.03125 173.1328125 C-141.04125 172.8028125 -140.05125 172.4728125 -139.03125 172.1328125 C-138.70125 171.4728125 -138.37125 170.8128125 -138.03125 170.1328125 C-137.04125 170.1328125 -136.05125 170.1328125 -135.03125 170.1328125 C-135.03125 169.4728125 -135.03125 168.8128125 -135.03125 168.1328125 C-133.57482355 166.90809026 -132.11385707 165.68797361 -130.62109375 164.5078125 C-128.79716984 163.02088091 -128.79716984 163.02088091 -126.84375 160.3203125 C-126.245625 159.5984375 -125.6475 158.8765625 -125.03125 158.1328125 C-124.04125 158.1328125 -123.05125 158.1328125 -122.03125 158.1328125 C-121.70125 156.4828125 -121.37125 154.8328125 -121.03125 153.1328125 C-120.04125 153.1328125 -119.05125 153.1328125 -118.03125 153.1328125 C-118.03125 151.8128125 -118.03125 150.4928125 -118.03125 149.1328125 C-116.71125 149.1328125 -115.39125 149.1328125 -114.03125 149.1328125 C-114.03125 147.1528125 -114.03125 145.1728125 -114.03125 143.1328125 C-113.37125 143.1328125 -112.71125 143.1328125 -112.03125 143.1328125 C-111.8765625 142.17375 -111.8765625 142.17375 -111.71875 141.1953125 C-111.491875 140.5146875 -111.265 139.8340625 -111.03125 139.1328125 C-110.04125 138.8028125 -109.05125 138.4728125 -108.03125 138.1328125 C-107.70125 136.4828125 -107.37125 134.8328125 -107.03125 133.1328125 C-106.37125 133.1328125 -105.71125 133.1328125 -105.03125 133.1328125 C-104.7425 131.9984375 -104.45375 130.8640625 -104.15625 129.6953125 C-103.599375 127.931875 -103.599375 127.931875 -103.03125 126.1328125 C-102.37125 125.8028125 -101.71125 125.4728125 -101.03125 125.1328125 C-100.62395772 122.81124653 -100.28686323 120.4759338 -100.03125 118.1328125 C-99.04125 118.1328125 -98.05125 118.1328125 -97.03125 118.1328125 C-97.06605469 117.50632812 -97.10085937 116.87984375 -97.13671875 116.234375 C-97.16378906 115.41710937 -97.19085938 114.59984375 -97.21875 113.7578125 C-97.25355469 112.94570312 -97.28835937 112.13359375 -97.32421875 111.296875 C-97.22753906 110.58273438 -97.13085938 109.86859375 -97.03125 109.1328125 C-96.04125 108.4728125 -95.05125 107.8128125 -94.03125 107.1328125 C-93.44437216 103.78667738 -93.44437216 103.78667738 -93.34375 100.0078125 C-93.24513672 98.08582031 -93.24513672 98.08582031 -93.14453125 96.125 C-93.10714844 95.13757813 -93.06976563 94.15015625 -93.03125 93.1328125 C-92.04125 93.4628125 -91.05125 93.7928125 -90.03125 94.1328125 C-90.03125 88.1928125 -90.03125 82.2528125 -90.03125 76.1328125 C-89.04125 75.8028125 -88.05125 75.4728125 -87.03125 75.1328125 C-86.70125 71.8328125 -86.37125 68.5328125 -86.03125 65.1328125 C-85.04125 65.1328125 -84.05125 65.1328125 -83.03125 65.1328125 C-83.093125 63.8540625 -83.155 62.5753125 -83.21875 61.2578125 C-83.32421875 59.078125 -83.32421875 59.078125 -83.03125 57.1328125 C-82.04125 56.4728125 -81.05125 55.8128125 -80.03125 55.1328125 C-79.29518501 51.56511698 -79.29518501 51.56511698 -79.03125 48.1328125 C-78.37125 48.1328125 -77.71125 48.1328125 -77.03125 48.1328125 C-76.37125 46.8128125 -75.71125 45.4928125 -75.03125 44.1328125 C-74.04125 44.1328125 -73.05125 44.1328125 -72.03125 44.1328125 C-72.155 43.2253125 -72.27875 42.3178125 -72.40625 41.3828125 C-72.2825 40.3103125 -72.15875 39.2378125 -72.03125 38.1328125 C-69.09375 36.0078125 -69.09375 36.0078125 -66.03125 34.1328125 C-65.07893403 32.01162122 -65.07893403 32.01162122 -65.03125 30.1328125 C-64.04125 30.1328125 -63.05125 30.1328125 -62.03125 30.1328125 C-61.70125 28.8128125 -61.37125 27.4928125 -61.03125 26.1328125 C-60.04125 26.1328125 -59.05125 26.1328125 -58.03125 26.1328125 C-58.03125 25.1428125 -58.03125 24.1528125 -58.03125 23.1328125 C-57.04125 23.1328125 -56.05125 23.1328125 -55.03125 23.1328125 C-54.70125 21.8128125 -54.37125 20.4928125 -54.03125 19.1328125 C-53.226875 19.0090625 -52.4225 18.8853125 -51.59375 18.7578125 C-50.748125 18.5515625 -49.9025 18.3453125 -49.03125 18.1328125 C-48.70125 17.4728125 -48.37125 16.8128125 -48.03125 16.1328125 C-47.04125 15.8028125 -46.05125 15.4728125 -45.03125 15.1328125 C-44.70125 14.1428125 -44.37125 13.1528125 -44.03125 12.1328125 C-40.56625 11.6378125 -40.56625 11.6378125 -37.03125 11.1328125 C-37.03125 10.1428125 -37.03125 9.1528125 -37.03125 8.1328125 C-35.05125 7.8028125 -33.07125 7.4728125 -31.03125 7.1328125 C-31.03125 6.4728125 -31.03125 5.8128125 -31.03125 5.1328125 C-28.39125 5.1328125 -25.75125 5.1328125 -23.03125 5.1328125 C-22.70125 3.8128125 -22.37125 2.4928125 -22.03125 1.1328125 C-14.65910535 0.14927386 -7.43209044 -0.01283509 0 0 Z " fill="white" transform="translate(294.03125,-0.1328125)"/>
</svg>
